<svg xmlns="http://www.w3.org/2000/svg" viewBox="0 0 1024 1024" width="1024" height="1024">
  <defs>
    <linearGradient id="bg" x1="0" y1="0" x2="0" y2="1">
      <stop offset="0" stop-color="#1c2156"/>
      <stop offset="0.55" stop-color="#0d1433"/>
      <stop offset="1" stop-color="#05070f"/>
    </linearGradient>
    <radialGradient id="glowA" cx="0.82" cy="0.12" r="0.62">
      <stop offset="0" stop-color="#7f8cff" stop-opacity="0.85"/>
      <stop offset="1" stop-color="#7f8cff" stop-opacity="0"/>
    </radialGradient>
    <radialGradient id="glowB" cx="0.12" cy="0.95" r="0.6">
      <stop offset="0" stop-color="#ff7aa8" stop-opacity="0.55"/>
      <stop offset="1" stop-color="#ff7aa8" stop-opacity="0"/>
    </radialGradient>
    <linearGradient id="ring" x1="0" y1="0" x2="1" y2="1">
      <stop offset="0" stop-color="#8ff3ff"/>
      <stop offset="0.5" stop-color="#8f8bff"/>
      <stop offset="1" stop-color="#ff86b4"/>
    </linearGradient>
    <linearGradient id="glass" x1="0.2" y1="0" x2="0.8" y2="1">
      <stop offset="0" stop-color="#ffffff"/>
      <stop offset="0.45" stop-color="#dff6ff"/>
      <stop offset="1" stop-color="#b3bcff"/>
    </linearGradient>
    <linearGradient id="sheen" x1="0" y1="0" x2="0" y2="1">
      <stop offset="0" stop-color="#ffffff" stop-opacity="0.9"/>
      <stop offset="0.5" stop-color="#ffffff" stop-opacity="0"/>
    </linearGradient>
    <filter id="soft" x="-30%" y="-30%" width="160%" height="160%">
      <feGaussianBlur stdDeviation="26"/>
    </filter>
  </defs>
  <rect width="1024" height="1024" fill="url(#bg)"/>
  <rect width="1024" height="1024" fill="url(#glowA)"/>
  <rect width="1024" height="1024" fill="url(#glowB)"/>
  <circle cx="512" cy="512" r="360" fill="none" stroke="#ffffff" stroke-opacity="0.08" stroke-width="22"/>
  <circle cx="512" cy="512" r="360" fill="none" stroke="url(#ring)" stroke-width="22" stroke-linecap="round"
          stroke-dasharray="1695 2262" transform="rotate(-90 512 512)"/>
  <circle cx="152" cy="512" r="20" fill="#8ff3ff"/>
  <path id="b" fill-rule="evenodd" d="M392,292 H575 C645,292 690,337 690,398 C690,440 668,472 632,488 C684,503 720,543 720,600 C720,675 665,732 585,732 H392 Z M472,364 H566 C598,364 614,381 614,404 C614,428 598,444 566,444 H472 Z M472,514 H578 C616,514 638,536 638,581 C638,626 616,660 578,660 H472 Z"/>
  <use href="#b" fill="#8ff3ff" opacity="0.55" filter="url(#soft)"/>
  <use href="#b" fill="url(#glass)"/>
  <use href="#b" fill="url(#sheen)" opacity="0.55"/>
</svg>
