<svg xmlns="http://www.w3.org/2000/svg" viewBox="0 0 1024 1024" width="1024" height="1024"><defs><linearGradient id="bg" x1="0" y1="0" x2="1" y2="1"><stop offset="0" stop-color="#FFD29A"/><stop offset="0.5" stop-color="#FF9A8B"/><stop offset="1" stop-color="#FF6FA8"/></linearGradient><linearGradient id="g-blue" x1="0" y1="0" x2="0.6" y2="1"><stop offset="0" stop-color="#63C3FF"/><stop offset="1" stop-color="#2F6BFF"/></linearGradient><filter id="s-blue" x="-30%" y="-30%" width="160%" height="160%"><feDropShadow dx="0" dy="20" stdDeviation="24" flood-color="#2F6BFF" flood-opacity="0.35"/></filter><linearGradient id="g-mint" x1="0" y1="0" x2="0.6" y2="1"><stop offset="0" stop-color="#5BF0BE"/><stop offset="1" stop-color="#12B886"/></linearGradient><filter id="s-mint" x="-30%" y="-30%" width="160%" height="160%"><feDropShadow dx="0" dy="20" stdDeviation="24" flood-color="#0E9F74" flood-opacity="0.35"/></filter><linearGradient id="g-coral" x1="0" y1="0" x2="0.6" y2="1"><stop offset="0" stop-color="#FFB36B"/><stop offset="1" stop-color="#FF5A5F"/></linearGradient><filter id="s-coral" x="-30%" y="-30%" width="160%" height="160%"><feDropShadow dx="0" dy="20" stdDeviation="24" flood-color="#E8454B" flood-opacity="0.35"/></filter><linearGradient id="sheen" x1="0" y1="0" x2="0" y2="1"><stop offset="0" stop-color="#fff" stop-opacity="0.55"/><stop offset="0.45" stop-color="#fff" stop-opacity="0.08"/><stop offset="1" stop-color="#fff" stop-opacity="0"/></linearGradient>
   <filter id="s-glass" x="-30%" y="-30%" width="160%" height="160%"><feDropShadow dx="0" dy="18" stdDeviation="22" flood-color="#6B3A5A" flood-opacity="0.22"/></filter></defs><rect width="1024" height="1024" fill="url(#bg)"/><g filter="url(#s-glass)"><rect x="150" y="150" width="350" height="724" rx="84" fill="#fff" fill-opacity="0.72"/></g><rect x="150" y="150" width="350" height="724" rx="84" fill="url(#sheen)"/><rect x="152" y="152" width="346" height="720" rx="82" fill="none" stroke="#fff" stroke-width="5"/><rect x="249" y="338.24" width="12" height="347.52" rx="6" fill="#2F6BFF" fill-opacity="0.45"/><circle cx="255" cy="323.76" r="29.750000000000004" fill="#2F6BFF" fill-opacity="1"/><rect x="304" y="300.65999999999997" width="140" height="46.2" rx="23.1" fill="#2F6BFF" fill-opacity="1"/><circle cx="255" cy="512" r="29.750000000000004" fill="#2F6BFF" fill-opacity="0.85"/><rect x="304" y="488.9" width="105" height="46.2" rx="23.1" fill="#2F6BFF" fill-opacity="0.85"/><circle cx="255" cy="700.24" r="29.750000000000004" fill="#2F6BFF" fill-opacity="0.7"/><rect x="304" y="677.14" width="140" height="46.2" rx="23.1" fill="#2F6BFF" fill-opacity="0.7"/><g filter="url(#s-glass)"><rect x="536" y="150" width="338" height="344" rx="84" fill="#fff" fill-opacity="0.72"/></g><rect x="536" y="150" width="338" height="344" rx="84" fill="url(#sheen)"/><rect x="538" y="152" width="334" height="340" rx="82" fill="none" stroke="#fff" stroke-width="5"/><path transform="translate(705 322) scale(1) translate(-705 -322)" d="M705 425 C640 380 600 345 600 300 C600 268 624 246 652 246 C675 246 693 258 705 278 C717 258 735 246 758 246 C786 246 810 268 810 300 C810 345 770 380 705 425 Z" fill="#12B886"/><g filter="url(#s-glass)"><rect x="536" y="530" width="338" height="344" rx="84" fill="#fff" fill-opacity="0.72"/></g><rect x="536" y="530" width="338" height="344" rx="84" fill="url(#sheen)"/><rect x="538" y="532" width="334" height="340" rx="82" fill="none" stroke="#fff" stroke-width="5"/><rect x="612.05" y="698.56" width="50.699999999999996" height="86" rx="15.209999999999997" fill="#FF5A5F"/><rect x="679.65" y="646.9599999999999" width="50.699999999999996" height="137.6" rx="15.209999999999997" fill="#FF5A5F"/><rect x="747.25" y="591.92" width="50.699999999999996" height="192.64000000000001" rx="15.209999999999997" fill="#FF5A5F"/></svg>